<?xml version="1.0" encoding="utf-8"?>
<!-- Generator: Adobe Illustrator 28.1.0, SVG Export Plug-In . SVG Version: 6.00 Build 0)  -->
<svg version="1.1" id="Layer_1" xmlns="http://www.w3.org/2000/svg" xmlns:xlink="http://www.w3.org/1999/xlink" x="0px" y="0px"
	 viewBox="0 0 768 768" style="enable-background:new 0 0 768 768;" xml:space="preserve">
<style type="text/css">
	.st0{fill:#999999;stroke:#000000;stroke-width:7;stroke-linejoin:round;stroke-miterlimit:10;}
	.st1{stroke:#000000;stroke-width:7;stroke-linejoin:round;stroke-miterlimit:10;}
	.st2{stroke:#000000;stroke-width:7;stroke-miterlimit:10;}
	.st3{fill:none;stroke:#000000;stroke-width:7;stroke-miterlimit:10;}
	.st4{display:none;}
	.st5{display:inline;fill:#BBBBBB;}
	.st6{display:inline;fill:#F7F6F5;}
	.st7{display:inline;fill:#585251;}
	.st8{display:inline;fill:#919593;}
	.st9{fill:#999999;}
	.st10{fill:#050404;}
	.st11{fill:none;stroke:#000000;stroke-width:19;stroke-linecap:round;stroke-linejoin:round;stroke-miterlimit:10;}
</style>
<path class="st0" d="M610.4,757.8H172c-26.3,0-47.6-21.3-47.6-47.6v-651c0-26.3,21.3-47.6,47.6-47.6h438.5
	c26.3,0,47.6,21.3,47.6,47.6v651C658,736.5,636.7,757.8,610.4,757.8z"/>
<path class="st1" d="M492.7,58.4h-203c-8.4,0-15.3-6.8-15.3-15.3v-15c0-8.4,6.8-15.3,15.3-15.3h203c8.4,0,15.3,6.8,15.3,15.3v15
	C508,51.6,501.1,58.4,492.7,58.4z"/>
<rect x="274.4" y="12.9" class="st2" width="233.5" height="19.8"/>
<line class="st3" x1="213.7" y1="157.7" x2="568.7" y2="157.7"/>
<line class="st3" x1="239.4" y1="221.9" x2="543" y2="221.9"/>
<line class="st3" x1="204.4" y1="282.6" x2="578" y2="282.6"/>
<line class="st3" x1="197.4" y1="343.3" x2="585" y2="343.3"/>
<line class="st3" x1="213.1" y1="397" x2="569.3" y2="397"/>
<line class="st3" x1="172.8" y1="454.2" x2="609.5" y2="454.2"/>
<line class="st3" x1="186.3" y1="513.8" x2="596.1" y2="513.8"/>
<g>
	<g id="Background_00000178189277890664016370000016515075525413108414_" class="st4">
		<path class="st5" d="M619.7,381.3c0.1,3.3,0,6.7,0,10c0,198.6,0,198.6,0,397.3c-0.1,2.8,0.1,5.6,0,8.4c-213.7,0-213.7,0-427.4,0
			c0-207.8,0-207.8,0-415.7C406,381.3,406,381.3,619.7,381.3z"/>
		<path class="st6" d="M619.7,797.4c-0.1,1.8,0.1,3.6,0,5.4c-213.9,0-213.9,0-427.9,0c-0.1-1.7,0.1-3.3,0-5
			C405.8,797.6,405.8,797.6,619.7,797.4z"/>
		<path class="st6" d="M191.9,380.1c0.1-1.9-0.1-3.3,0-4.7c213.9,0,213.9,0,427.9,0c0.1,1.4-0.1,2.8,0,4.7H191.9z"/>
		<path class="st7" d="M619.7,380.1c0,0.1,0,0.6,0,1.2H191.9c0-0.5,0-1.1,0-1.2H619.7z"/>
		<path class="st7" d="M619.7,796.9c0,0.4,0,0.8,0,1.3c-213.9,0.2-213.9,0.2-427.9,0.4c0-0.6,0-1.1,0-1.7
			C405.8,796.9,405.8,796.9,619.7,796.9z"/>
		<path class="st8" d="M619.7,788.2c0-198.5,0-198.5,0-396.9C620.9,523.6,618.8,655.9,619.7,788.2z"/>
	</g>
	<g>
		<path class="st9" d="M499.6,441c1.5-0.2,1.8,0.6,2.7,1.5c1.7,1.7,22.4,32.2,27.6,38c3.3,3.7-9.9,12.1-16.9,19
			c-48.8,47.9-91.3,123.1-117.6,186.1c18.8,1.9,71.7,1.3,86.7,5.2c12.3,3.2,6.6,15.2,1.7,16.3c-2.9,0.6-46.3-3-59.7-3.3
			c-30.7-0.8-70.9-0.3-101.5,1.3c-12.4,0.6-26.4,5.4-29-3.1c-1-3.1-0.5-8.9,2.7-10.7c4.8-2.6,67.1-5,77.9-4.8
			c-12.1-29.7-31.2-58.4-56.2-78.8c-9.1-7.4-26-17.2-26.9-18.6c-3.7-5.5,12.1-23,16.9-26.5c26.8-19.5,53.8-3,71.4,19.6
			c22-39.8,58.2-87.1,91.5-117.8C474,461.4,497.8,441.3,499.6,441z"/>
		<path class="st10" d="M499.2,447.7c12.4,17,12.4,17,24.9,34.1C466.8,530.7,417.3,616.3,390,686.1c-5.1,0.1-5.1,0.1-10.2,0.2
			c-14.4-36.8-36.4-67.5-68.5-90.7c-2.3-1.6-15.4-9-15.3-10.7c25.1-41.3,60.4-27.5,83.8,6.9C409.5,538.3,450.5,485.3,499.2,447.7z"
			/>
		<path class="st10" d="M355.9,692.6c23.4-0.6,68.2-0.4,91.1,0.8c4.3,0.2,33.5,2.2,35.1,2.9c2.5,1.2,1.7,4.8-0.8,5.4
			c-2,0.5-36.2-2.7-42.2-2.9c-30.7-1.3-61.6-1.5-92.3-0.4c-6.5,0.2-44.6,3.6-46.8,2.9c-1.7-0.5-2.7-4.4,0-5.4
			C302.5,694.9,349.2,692.7,355.9,692.6z"/>
	</g>
</g>
<path class="st11" d="M391.2,537.1"/>
</svg>
