<?xml version="1.0" encoding="utf-8"?>
<!-- Generator: Adobe Illustrator 28.1.0, SVG Export Plug-In . SVG Version: 6.00 Build 0)  -->
<svg version="1.1" id="Layer_1" xmlns="http://www.w3.org/2000/svg" xmlns:xlink="http://www.w3.org/1999/xlink" x="0px" y="0px"
	 viewBox="0 0 768 768" style="enable-background:new 0 0 768 768;" xml:space="preserve">
<style type="text/css">
	.st0{fill:#999999;stroke:#000000;stroke-width:7;stroke-linejoin:round;stroke-miterlimit:10;}
	.st1{stroke:#000000;stroke-width:7;stroke-linejoin:round;stroke-miterlimit:10;}
	.st2{stroke:#000000;stroke-width:7;stroke-miterlimit:10;}
	.st3{fill:none;stroke:#000000;stroke-width:7;stroke-miterlimit:10;}
</style>
<path class="st0" d="M602.5,756h-437c-26.3,0-47.6-21.3-47.6-47.6V59.6c0-26.3,21.3-47.6,47.6-47.6h437c26.3,0,47.6,21.3,47.6,47.6
	v648.9C650,734.7,628.8,756,602.5,756z"/>
<path class="st1" d="M485.1,58.6H282.9c-8.4,0-15.3-6.8-15.3-15.3V28.4c0-8.4,6.8-15.3,15.3-15.3h202.3c8.4,0,15.3,6.8,15.3,15.3
	v14.8C500.4,51.7,493.6,58.6,485.1,58.6z"/>
<rect x="267.6" y="13.2" class="st2" width="232.9" height="19.8"/>
<line class="st3" x1="207" y1="157.5" x2="561" y2="157.5"/>
<line class="st3" x1="232.6" y1="221.6" x2="535.4" y2="221.6"/>
<line class="st3" x1="232.6" y1="634.9" x2="535.4" y2="634.9"/>
<line class="st3" x1="197.7" y1="282.1" x2="570.3" y2="282.1"/>
<line class="st3" x1="190.7" y1="342.7" x2="577.3" y2="342.7"/>
<line class="st3" x1="206.4" y1="396.2" x2="561.6" y2="396.2"/>
<line class="st3" x1="206.4" y1="690.8" x2="561.6" y2="690.8"/>
<line class="st3" x1="166.3" y1="453.3" x2="601.7" y2="453.3"/>
<line class="st3" x1="179.7" y1="512.7" x2="588.3" y2="512.7"/>
<line class="st3" x1="238.5" y1="572" x2="529.5" y2="572"/>
</svg>
